<svg width="222" height="71" viewBox="0 0 222 71" fill="none" xmlns="http://www.w3.org/2000/svg">
<rect width="222" height="71" fill="#333333"/>
<path d="M51.62 40.1198C53.84 40.1198 55.64 38.3798 55.64 35.7998C55.64 33.2198 53.84 31.4798 51.62 31.4798C49.4 31.4798 47.6 33.2198 47.6 35.7998C47.6 38.3798 49.4 40.1198 51.62 40.1198ZM51.62 39.2198C49.94 39.2198 48.56 37.8398 48.56 35.7998C48.56 33.7598 49.94 32.3798 51.62 32.3798C53.3 32.3798 54.68 33.7598 54.68 35.7998C54.68 37.8398 53.3 39.2198 51.62 39.2198ZM61.46 39.9998H62.42V32.4998H65.18V31.5998H58.7V32.4998H61.46V39.9998ZM68.8381 39.9998H69.7981V32.4998H74.4781V39.9998H75.4381V31.5998H68.8381V39.9998ZM79.7577 39.9998H80.7177V36.7598H83.4177C84.7377 36.7598 85.8177 35.6798 85.8177 34.1798C85.8177 32.6798 84.7377 31.5998 83.4177 31.5998H79.7577V39.9998ZM80.7177 35.8598V32.4998H83.4177C84.1977 32.4998 84.8577 33.1598 84.8577 34.1798C84.8577 35.1998 84.1977 35.8598 83.4177 35.8598H80.7177ZM88.1 39.9998H89.12L89.9 37.8398H94.1L94.88 39.9998H95.9L92.72 31.5998H91.28L88.1 39.9998ZM90.26 36.9398L91.88 32.6198H92.12L93.74 36.9398H90.26ZM99.2647 39.9998H102.985C104.245 39.9998 105.265 38.9798 105.265 37.6598C105.265 36.2798 104.245 35.7998 104.245 35.7998V35.7398C104.245 35.7398 105.145 35.1998 105.145 33.9398C105.145 32.6198 104.125 31.5998 102.865 31.5998H99.2647V39.9998ZM100.225 39.0998V36.2198H102.985C103.705 36.2198 104.305 36.8198 104.305 37.6598C104.305 38.4998 103.705 39.0998 102.985 39.0998H100.225ZM100.225 35.3798V32.4998H102.865C103.585 32.4998 104.185 33.0998 104.185 33.9398C104.185 34.7798 103.585 35.3798 102.865 35.3798H100.225ZM109.34 39.9998H110.96L114.74 32.7398H114.98V39.9998H115.94V31.5998H114.32L110.54 38.8598H110.3V31.5998H109.34V39.9998ZM122.36 39.9998H123.32V32.4998H126.08V31.5998H119.6V32.4998H122.36V39.9998ZM129.738 39.9998H133.218C134.598 39.9998 135.678 38.8598 135.678 37.3598C135.678 35.8598 134.598 34.7198 133.218 34.7198H130.698V31.5998H129.738V39.9998ZM130.698 39.0998V35.6198H133.218C134.058 35.6198 134.718 36.3398 134.718 37.3598C134.718 38.3798 134.058 39.0998 133.218 39.0998H130.698Z" fill="white"/>
<path fill-rule="evenodd" clip-rule="evenodd" d="M152 35.4998C152 35.2236 152.224 34.9998 152.5 34.9998L168.5 34.9998C168.776 34.9998 169 35.2236 169 35.4998C169 35.7759 168.776 35.9998 168.5 35.9998L152.5 35.9998C152.224 35.9998 152 35.7759 152 35.4998Z" fill="white"/>
<path fill-rule="evenodd" clip-rule="evenodd" d="M164.646 31.6462C164.842 31.4509 165.158 31.4509 165.354 31.6462L169.207 35.4998L165.354 39.3533C165.158 39.5486 164.842 39.5486 164.646 39.3533C164.451 39.158 164.451 38.8415 164.646 38.6462L167.793 35.4998L164.646 32.3533C164.451 32.158 164.451 31.8415 164.646 31.6462Z" fill="white"/>
</svg>
