<svg width="222" height="71" viewBox="0 0 222 71" fill="none" xmlns="http://www.w3.org/2000/svg">
<rect width="222" height="71" fill="white"/>
<path d="M56.62 40.1198C58.42 40.1198 59.86 39.0398 60.34 37.2398H59.32C58.9 38.4998 57.88 39.2198 56.62 39.2198C54.94 39.2198 53.56 37.8398 53.56 35.7998C53.56 33.7598 54.94 32.3798 56.62 32.3798C57.88 32.3798 58.9 33.0998 59.32 34.2998H60.34C59.86 32.5598 58.42 31.4798 56.62 31.4798C54.4 31.4798 52.6 33.2198 52.6 35.7998C52.6 38.3798 54.4 40.1198 56.62 40.1198ZM64.1256 39.9998H65.0856V32.8598H65.3256L67.8456 39.9998H69.2856L71.8056 32.8598H72.0456V39.9998H73.0056V31.5998H71.2656L68.6856 38.9198H68.4456L65.8656 31.5998H64.1256V39.9998ZM80.9903 40.1198C83.2103 40.1198 85.0103 38.3798 85.0103 35.7998C85.0103 33.2198 83.2103 31.4798 80.9903 31.4798C78.7703 31.4798 76.9703 33.2198 76.9703 35.7998C76.9703 38.3798 78.7703 40.1198 80.9903 40.1198ZM80.9903 39.2198C79.3103 39.2198 77.9303 37.8398 77.9303 35.7998C77.9303 33.7598 79.3103 32.3798 80.9903 32.3798C82.6703 32.3798 84.0503 33.7598 84.0503 35.7998C84.0503 37.8398 82.6703 39.2198 80.9903 39.2198ZM90.8303 39.9998H91.7903V32.4998H94.5503V31.5998H88.0703V32.4998H90.8303V39.9998ZM98.2084 39.9998H99.1684V36.7598H101.868C103.188 36.7598 104.268 35.6798 104.268 34.1798C104.268 32.6798 103.188 31.5998 101.868 31.5998H98.2084V39.9998ZM99.1684 35.8598V32.4998H101.868C102.648 32.4998 103.308 33.1598 103.308 34.1798C103.308 35.1998 102.648 35.8598 101.868 35.8598H99.1684ZM108.226 39.9998H113.626V39.0998H109.186V36.2198H113.386V35.3198H109.186V32.4998H113.626V31.5998H108.226V39.9998ZM119.745 39.9998H120.705V32.4998H123.465V31.5998H116.985V32.4998H119.745V39.9998ZM127.123 39.9998H130.603C131.983 39.9998 133.063 38.8598 133.063 37.3598C133.063 35.8598 131.983 34.7198 130.603 34.7198H128.083V31.5998H127.123V39.9998ZM128.083 39.0998V35.6198H130.603C131.443 35.6198 132.103 36.3398 132.103 37.3598C132.103 38.3798 131.443 39.0998 130.603 39.0998H128.083Z" fill="#333333"/>
<path fill-rule="evenodd" clip-rule="evenodd" d="M149 35.4998C149 35.2236 149.224 34.9998 149.5 34.9998L165.5 34.9998C165.776 34.9998 166 35.2236 166 35.4998C166 35.7759 165.776 35.9998 165.5 35.9998L149.5 35.9998C149.224 35.9998 149 35.7759 149 35.4998Z" fill="#333333"/>
<path fill-rule="evenodd" clip-rule="evenodd" d="M161.646 31.6462C161.842 31.4509 162.158 31.4509 162.354 31.6462L166.207 35.4998L162.354 39.3533C162.158 39.5486 161.842 39.5486 161.646 39.3533C161.451 39.158 161.451 38.8415 161.646 38.6462L164.793 35.4998L161.646 32.3533C161.451 32.158 161.451 31.8415 161.646 31.6462Z" fill="#333333"/>
</svg>
