<svg width="223" height="71" viewBox="0 0 223 71" fill="none" xmlns="http://www.w3.org/2000/svg">
<rect x="0.656494" width="222" height="71" fill="white"/>
<path d="M51.96 40H55.68C56.94 40 57.96 38.98 57.96 37.66C57.96 36.28 56.94 35.8 56.94 35.8V35.74C56.94 35.74 57.84 35.2 57.84 33.94C57.84 32.62 56.82 31.6 55.56 31.6H51.96V40ZM52.92 39.1V36.22H55.68C56.4 36.22 57 36.82 57 37.66C57 38.5 56.4 39.1 55.68 39.1H52.92ZM52.92 35.38V32.5H55.56C56.28 32.5 56.88 33.1 56.88 33.94C56.88 34.78 56.28 35.38 55.56 35.38H52.92ZM64.5558 40.12C66.4758 40.12 67.6158 39.04 67.6158 37.72C67.6158 36.22 66.1158 35.8 66.1158 35.8V35.74C66.1158 35.74 67.4358 35.32 67.4358 33.88C67.4358 32.62 66.3558 31.48 64.5558 31.48C62.7558 31.48 61.6758 32.56 61.6758 33.88H62.6358C62.6358 33.1 63.3558 32.38 64.5558 32.38C65.7558 32.38 66.4758 33.04 66.4758 33.88C66.4758 34.66 65.8158 35.32 64.8558 35.32H64.0158V36.22H64.8558C65.9358 36.22 66.6558 36.94 66.6558 37.72C66.6558 38.5 65.8758 39.22 64.5558 39.22C63.1758 39.22 62.4558 38.5 62.4558 37.72H61.4958C61.4958 39.04 62.6358 40.12 64.5558 40.12ZM71.5725 40H72.5325V32.5H76.8525V31.6H71.5725V40ZM78.8981 40.06H79.3181C80.4581 40.06 81.0701 39.46 81.1781 38.14L81.6581 32.5H85.0181V40H85.9781V31.6H80.7581L80.2181 38.14C80.1581 38.8 79.7981 39.1 79.3181 39.1H78.8981V40.06ZM89.8144 40H91.0144L94.2544 36.76H95.0944V40H96.0544V31.6H92.3944C91.0744 31.6 89.9944 32.68 89.9944 34.18C89.9944 35.68 91.0744 36.76 92.3944 36.76H93.0544L89.8144 40ZM92.3944 35.86C91.6144 35.86 90.9544 35.2 90.9544 34.18C90.9544 33.16 91.6144 32.5 92.3944 32.5H95.0944V35.86H92.3944ZM100.37 40H101.33V36.22H106.01V40H106.97V31.6H106.01V35.32H101.33V31.6H100.37V40ZM111.53 40H112.73C113.51 40 113.894 39.64 114.11 39.16L117.53 31.6H116.51L114.17 36.82H113.93L111.47 31.6H110.45L113.57 38.14L113.33 38.68C113.198 38.992 113.03 39.1 112.67 39.1H111.53V40ZM123.114 40H124.074V32.5H126.834V31.6H120.354V32.5H123.114V40ZM130.492 40H133.972C135.352 40 136.432 38.86 136.432 37.36C136.432 35.86 135.352 34.72 133.972 34.72H131.452V31.6H130.492V40ZM131.452 39.1V35.62H133.972C134.812 35.62 135.472 36.34 135.472 37.36C135.472 38.38 134.812 39.1 133.972 39.1H131.452Z" fill="#333333"/>
<path fill-rule="evenodd" clip-rule="evenodd" d="M152 35.5C152 35.2239 152.224 35 152.5 35L168.5 35C168.776 35 169 35.2239 169 35.5C169 35.7761 168.776 36 168.5 36L152.5 36C152.224 36 152 35.7761 152 35.5Z" fill="#333333"/>
<path fill-rule="evenodd" clip-rule="evenodd" d="M164.646 31.6464C164.842 31.4512 165.158 31.4512 165.354 31.6464L169.207 35.5L165.354 39.3536C165.158 39.5488 164.842 39.5488 164.646 39.3536C164.451 39.1583 164.451 38.8417 164.646 38.6464L167.793 35.5L164.646 32.3536C164.451 32.1583 164.451 31.8417 164.646 31.6464Z" fill="#333333"/>
</svg>
